<svg xmlns="http://www.w3.org/2000/svg" viewBox="0 0 40 40">
  <path d="M24.6 24.2a2.1 2.1 0 1 1 2.1-2.1 2.1 2.1 0 0 1-2.1 2.1m.4 3.4c-1.5 1.4-4.2 1.5-5 1.5s-3.5-.1-4.9-1.5a.5.5 0 0 1 .7-.8h.1c.9.9 2.8 1.2 4.2 1.2s3.3-.3 4.2-1.2a.5.5 0 0 1 .8.8m-11.8-5.5a2.1 2.1 0 1 1 2.1 2.1 2.1 2.1 0 0 1-2.1-2.1m20-2.1a2.9 2.9 0 0 0-4.9-2.1 14.3 14.3 0 0 0-7.8-2.5l1.3-6.3 4.3.9a2.1 2.1 0 1 0 .2-1l-4.8-1h-.4l-.2.3-1.5 6.9a.5.5 0 0 0 0 .1 14.3 14.3 0 0 0-7.9 2.5 2.9 2.9 0 1 0-3.8 4.4l.5.4a5.8 5.8 0 0 0-.1.9c0 4.5 5.2 8.1 11.7 8.1s11.8-3.6 11.8-8.1a5.8 5.8 0 0 0-.1-.9 2.9 2.9 0 0 0 1.7-2.6" style="fill:#fff"/></svg>
