<svg xmlns="http://www.w3.org/2000/svg" xmlns:xlink="http://www.w3.org/1999/xlink" viewBox="183.3 47.4 50 50">
  <path fill="#fff" d="M201.3 71.1v4.3h7.2c-.3 1.9-2.2 5.5-7.2 5.5-4.3 0-7.8-3.6-7.8-8s3.5-8 7.8-8c2.5 0 4.1 1.1 5 2l3.4-3.3c-2.2-2.1-5.1-3.3-8.5-3.3-7 0-12.7 5.7-12.7 12.7s5.7 12.7 12.7 12.7c7.3 0 12.1-5.1 12.1-12.4 0-.8-.1-1.5-.2-2.1l-11.8-.1z"/>
  <defs>
    <path id="a" d="M228.4 71.1h-3.6v-3.6h-3.7v3.6h-3.6v3.7h3.6v3.6h3.7v-3.6h3.6"/>
  </defs>
  <clipPath id="b">
    <use xlink:href="#a" overflow="visible"/>
  </clipPath>
  <path fill="#fff" d="M217.5 67.5h10.8v10.8h-10.8z" clip-path="url(#b)"/>
</svg>
