<svg xmlns="http://www.w3.org/2000/svg" width="512" height="512" viewBox="0 0 512 512"><path d="M376.8,181.2A103.7,103.7,0,0,1,352,206.8q.2,2.1.2,6.4a140.6,140.6,0,0,1-5.8,39.8,143.7,143.7,0,0,1-17.7,38.1,149.7,149.7,0,0,1-28.3,32.3q-16.4,14-39.5,22.4a144.7,144.7,0,0,1-49.5,8.4,137.5,137.5,0,0,1-76-22.2,106,106,0,0,0,12,.6,96.9,96.9,0,0,0,61.5-21.2A49.6,49.6,0,0,1,162.3,277a62.7,62.7,0,0,0,9.4.8,51.2,51.2,0,0,0,13-1.7A48.7,48.7,0,0,1,156.3,259,47.8,47.8,0,0,1,145,227.5v-.6a49.1,49.1,0,0,0,22.4,6.3,49.5,49.5,0,0,1-16.1-17.6,49.6,49.6,0,0,1,.8-48.6,140.3,140.3,0,0,0,45.1,36.6,138,138,0,0,0,56.9,15.3,55,55,0,0,1-1.2-11.3,49.6,49.6,0,0,1,85.7-33.9,97.1,97.1,0,0,0,31.4-12,48.1,48.1,0,0,1-21.8,27.3A98.6,98.6,0,0,0,376.8,181.2Z" style="fill:#fff"/></svg>