<svg xmlns="http://www.w3.org/2000/svg" width="512" height="512" viewBox="0 0 512 512"><path d="M393.6,217.6V339.5A24.6,24.6,0,0,1,369,364.1H143a24.6,24.6,0,0,1-24.6-24.6V217.6A81.4,81.4,0,0,0,133.9,231q55.6,37.8,76.3,53,8.8,6.4,14.2,10.1a87.7,87.7,0,0,0,14.5,7.4,44.2,44.2,0,0,0,16.9,3.8h.3a44.2,44.2,0,0,0,16.9-3.8,87.7,87.7,0,0,0,14.5-7.4q5.5-3.6,14.2-10.1,26.1-18.9,76.5-53A84.7,84.7,0,0,0,393.6,217.6Zm0-45.1a40.6,40.6,0,0,1-7.5,23.2,73,73,0,0,1-18.7,18.9l-71.9,49.9-6.5,4.7-8.3,5.8q-3.3,2.2-8,5a46.5,46.5,0,0,1-8.8,4.1,24.4,24.4,0,0,1-7.7,1.4h-.3a24.4,24.4,0,0,1-7.7-1.4,46.5,46.5,0,0,1-8.8-4.1q-4.7-2.8-8-5l-8.3-5.8-6.5-4.7-40.2-28-31.5-21.9a76.2,76.2,0,0,1-18-17.7q-8.4-11.3-8.4-21,0-12,6.4-20t18.2-8H369a24.8,24.8,0,0,1,24.6,24.6Z" style="fill:#fff"/></svg>