<svg xmlns="http://www.w3.org/2000/svg" viewBox="0 0 475.1 475.1">
  <path fill="#efb035" d="M365.4 402c0 10.1 3.6 18.7 10.7 25.8 7.1 7.1 15.7 10.7 25.8 10.7 10.1 0 18.7-3.6 25.8-10.7 7.1-7.1 10.7-15.7 10.7-25.8s-3.6-18.7-10.7-25.8c-7.1-7.1-15.7-10.7-25.8-10.7-10.1 0-18.7 3.6-25.8 10.7-7.1 7.1-10.7 15.7-10.7 25.8zM469.7 78.5c-3.6-3.6-7.9-5.4-12.8-5.4h-343c-.2-1.3-.6-3.8-1.3-7.3-.7-3.5-1.2-6.3-1.6-8.4-.4-2.1-1.1-4.6-2.1-7.6s-2.3-5.3-3.7-7c-1.4-1.7-3.3-3.2-5.7-4.4-2.4-1.2-5.1-1.9-8.1-1.9H18.3c-5 0-9.2 1.8-12.9 5.4-3.6 3.7-5.4 8-5.4 12.9S1.8 64 5.4 67.7c3.6 3.6 7.9 5.4 12.9 5.4h58.2l50.5 235c-.4.8-2.3 4.4-5.9 10.8-3.5 6.5-6.3 12.1-8.4 17-2.1 4.9-3.1 8.6-3.1 11.3 0 4.9 1.8 9.2 5.4 12.9 3.6 3.6 7.9 5.4 12.9 5.4h292.3c4.9 0 9.2-1.8 12.8-5.4 3.6-3.6 5.4-7.9 5.4-12.9s-1.8-9.2-5.4-12.8c-3.6-3.6-7.9-5.4-12.8-5.4H157.6c4.6-9.1 6.9-15.2 6.9-18.3 0-1.9-.2-4-.7-6.3s-1-4.8-1.7-7.6-1.1-4.8-1.3-6.1l298.1-34.8c4.8-.6 8.7-2.6 11.7-6.1 3-3.5 4.6-7.6 4.6-12.1V91.4c-.1-5-1.9-9.3-5.5-12.9zM109.6 402c0 10.1 3.6 18.7 10.7 25.8 7.1 7.1 15.8 10.7 25.8 10.7 10.1 0 18.7-3.6 25.8-10.7 7.1-7.1 10.7-15.7 10.7-25.8s-3.6-18.7-10.7-25.8c-7.1-7.1-15.8-10.7-25.8-10.7-10.1 0-18.7 3.6-25.8 10.7-7.1 7.1-10.7 15.7-10.7 25.8z"/>
</svg>
