<svg xmlns="http://www.w3.org/2000/svg" viewBox="0 0 561.83 94.25"><title>Artboard 1</title><path d="M60.33,50.23a16.09,16.09,0,1,1-.17-14.83L67.66,28a27.17,27.17,0,1,0,.19,29.59Z" fill="#fff" stroke="#fff" stroke-miterlimit="10"/><rect x="40.79" y="37.49" width="11.01" height="11" fill="#fff" stroke="#fff" stroke-miterlimit="10"/><rect y="17.77" width="11.77" height="51.39" fill="#fff" stroke="#fff" stroke-miterlimit="10"/><polygon points="72.58 17.77 88.53 17.77 99.54 51.3 99.68 51.3 110.76 17.77 126.64 17.77 126.64 69.16 116.1 69.16 116.1 31.31 115.97 31.31 103.4 69.16 95.35 69.16 83.26 31.31 83.12 31.31 83.12 69.16 72.58 69.16 72.58 17.77" fill="#fff" stroke="#fff" stroke-miterlimit="10"/><polygon points="178.64 69.15 157.83 17.77 149.11 17.77 128.44 69.15 140.06 69.15 153.16 32.72 163.26 59.79 150.31 59.79 146.99 69.16 178.64 69.15" fill="#fff" stroke="#fff" stroke-miterlimit="10"/><line x1="203.16" x2="203.16" y2="94.25" fill="#fff" stroke="#fff" stroke-miterlimit="10" stroke-width="3"/><path d="M256.35,40.18a3.77,3.77,0,0,1-.6.6,1.38,1.38,0,0,1-.84.22,2,2,0,0,1-1.16-.43c-.4-.28-.91-.59-1.52-.93a13.73,13.73,0,0,0-2.2-.93,10.43,10.43,0,0,0-3.19-.43,10.08,10.08,0,0,0-4.38.9,8.51,8.51,0,0,0-3.15,2.55,11.79,11.79,0,0,0-1.92,4,20.45,20.45,0,0,0-.65,5.34,19.8,19.8,0,0,0,.69,5.47,11.75,11.75,0,0,0,2,4,8.3,8.3,0,0,0,3.11,2.48,9.43,9.43,0,0,0,4.06.85,10.17,10.17,0,0,0,3.59-.54,11.59,11.59,0,0,0,2.34-1.15A14.49,14.49,0,0,0,254,61.08a2,2,0,0,1,1.28-.53,1.47,1.47,0,0,1,1.27.62l1.93,2.48a12.84,12.84,0,0,1-2.7,2.52,15.47,15.47,0,0,1-3.19,1.69,18,18,0,0,1-3.53,1,22.21,22.21,0,0,1-3.74.31,15.54,15.54,0,0,1-6.12-1.2,13.9,13.9,0,0,1-4.93-3.52A16.77,16.77,0,0,1,231,58.74a22.39,22.39,0,0,1-1.21-7.64,22.83,22.83,0,0,1,1.09-7.2,16,16,0,0,1,3.2-5.71,15,15,0,0,1,5.22-3.75,17.51,17.51,0,0,1,7.11-1.36,17,17,0,0,1,6.61,1.2,16.38,16.38,0,0,1,5.11,3.42Z" fill="#fff" stroke="#fff" stroke-miterlimit="10"/><path d="M279.1,33.08a18.66,18.66,0,0,1,7,1.25A14.63,14.63,0,0,1,291.39,38a16.14,16.14,0,0,1,3.36,5.69,22.16,22.16,0,0,1,1.18,7.46,22.34,22.34,0,0,1-1.18,7.49,15.92,15.92,0,0,1-3.36,5.68,14.61,14.61,0,0,1-5.31,3.61,20.2,20.2,0,0,1-14,0,14.77,14.77,0,0,1-5.33-3.61,16,16,0,0,1-3.39-5.68,22.33,22.33,0,0,1-1.19-7.49,22.15,22.15,0,0,1,1.19-7.46A16.2,16.2,0,0,1,266.76,38a14.79,14.79,0,0,1,5.33-3.62A18.79,18.79,0,0,1,279.1,33.08Zm0,30.81q5,0,7.41-3.34c1.64-2.23,2.45-5.37,2.45-9.41s-.81-7.19-2.45-9.43-4.1-3.36-7.41-3.36-5.85,1.12-7.49,3.36-2.47,5.39-2.47,9.43.82,7.18,2.47,9.41S275.75,63.89,279.1,63.89Z" fill="#fff" stroke="#fff" stroke-miterlimit="10"/><path d="M309.71,38.49a23.43,23.43,0,0,1,2.38-2.21,15.41,15.41,0,0,1,2.64-1.7,13.93,13.93,0,0,1,3-1.11,14.47,14.47,0,0,1,3.43-.39,12.54,12.54,0,0,1,5.08,1,10.08,10.08,0,0,1,3.67,2.71,11.54,11.54,0,0,1,2.24,4.19,18,18,0,0,1,.76,5.41v22.3h-6.75V46.35a9,9,0,0,0-1.73-5.85,6.44,6.44,0,0,0-5.27-2.08,10,10,0,0,0-4.84,1.22A16.09,16.09,0,0,0,310.13,43V68.65h-6.72v-35h4A1.65,1.65,0,0,1,309.2,35Z" fill="#fff" stroke="#fff" stroke-miterlimit="10"/><path d="M343.74,68.65V39.14l-3.66-.45a3.06,3.06,0,0,1-1.29-.56,1.41,1.41,0,0,1-.5-1.16V34.18h5.45V31a15.36,15.36,0,0,1,.86-5.35,11,11,0,0,1,2.46-4,10.6,10.6,0,0,1,3.86-2.48,14.53,14.53,0,0,1,5.09-.84,13.41,13.41,0,0,1,4.38.69l-.14,3.37a1,1,0,0,1-.28.68,1.44,1.44,0,0,1-.63.32,5,5,0,0,1-1,.13h-1.22a10,10,0,0,0-2.83.38,5,5,0,0,0-2.17,1.28,5.75,5.75,0,0,0-1.38,2.36,11.82,11.82,0,0,0-.48,3.63v3h9.82v4.89h-9.62V68.65Z" fill="#fff" stroke="#fff" stroke-miterlimit="10"/><path d="M393.41,63.65a13.15,13.15,0,0,1-2.86,2.5,16.8,16.8,0,0,1-3.45,1.71,20.84,20.84,0,0,1-3.77,1,24.07,24.07,0,0,1-3.85.31,17.94,17.94,0,0,1-6.7-1.22,14.81,14.81,0,0,1-5.34-3.59,16.21,16.21,0,0,1-3.52-5.86,23.64,23.64,0,0,1-1.26-8,19.87,19.87,0,0,1,1.14-6.81,16.22,16.22,0,0,1,3.26-5.5,15,15,0,0,1,5.19-3.69,16.91,16.91,0,0,1,6.89-1.34,16.17,16.17,0,0,1,5.91,1.05,13.19,13.19,0,0,1,4.67,3,14.09,14.09,0,0,1,3.09,4.93,18.76,18.76,0,0,1,1.12,6.69,4.24,4.24,0,0,1-.35,2.08,1.38,1.38,0,0,1-1.27.53h-23a18.89,18.89,0,0,0,.9,5.47,11,11,0,0,0,2.18,3.88,8.85,8.85,0,0,0,3.33,2.31,11.81,11.81,0,0,0,4.31.75,13.13,13.13,0,0,0,3.88-.51,19.47,19.47,0,0,0,2.82-1.12c.8-.4,1.46-.78,2-1.12a2.73,2.73,0,0,1,1.43-.52,1.49,1.49,0,0,1,1.28.62Zm-5.55-16.41a11.41,11.41,0,0,0-.57-3.68,8.37,8.37,0,0,0-1.67-2.93,7.62,7.62,0,0,0-2.69-1.94,9.25,9.25,0,0,0-3.65-.68,9,9,0,0,0-6.67,2.44,11.91,11.91,0,0,0-3.09,6.79Z" fill="#fff" stroke="#fff" stroke-miterlimit="10"/><path d="M407.51,40.35a15.87,15.87,0,0,1,4.07-5.41,8.68,8.68,0,0,1,5.72-2,8.79,8.79,0,0,1,2.15.26,5.44,5.44,0,0,1,1.78.78l-.45,5.06a1.1,1.1,0,0,1-1.14.94,8.28,8.28,0,0,1-1.45-.2,11.2,11.2,0,0,0-2.06-.18,8.09,8.09,0,0,0-2.86.46A6.72,6.72,0,0,0,411,41.47a9.75,9.75,0,0,0-1.74,2.24,22.44,22.44,0,0,0-1.41,3V68.65h-6.72v-35H405a2.18,2.18,0,0,1,1.5.39,2.62,2.62,0,0,1,.56,1.4Z" fill="#fff" stroke="#fff" stroke-miterlimit="10"/><path d="M453.87,63.65a13.15,13.15,0,0,1-2.86,2.5,16.8,16.8,0,0,1-3.45,1.71,20.84,20.84,0,0,1-3.77,1,24.07,24.07,0,0,1-3.85.31,17.94,17.94,0,0,1-6.7-1.22,14.81,14.81,0,0,1-5.34-3.59,16.21,16.21,0,0,1-3.52-5.86,23.64,23.64,0,0,1-1.26-8,19.87,19.87,0,0,1,1.14-6.81,16.22,16.22,0,0,1,3.26-5.5,15,15,0,0,1,5.19-3.69,16.91,16.91,0,0,1,6.89-1.34,16.17,16.17,0,0,1,5.91,1.05,13.1,13.1,0,0,1,4.67,3,14.09,14.09,0,0,1,3.09,4.93,18.76,18.76,0,0,1,1.12,6.69,4.24,4.24,0,0,1-.35,2.08,1.38,1.38,0,0,1-1.27.53h-23a18.89,18.89,0,0,0,.9,5.47,10.83,10.83,0,0,0,2.19,3.88,8.74,8.74,0,0,0,3.32,2.31,11.85,11.85,0,0,0,4.31.75,13.13,13.13,0,0,0,3.88-.51,20.11,20.11,0,0,0,2.83-1.12c.79-.4,1.45-.78,2-1.12a2.73,2.73,0,0,1,1.44-.52,1.48,1.48,0,0,1,1.27.62Zm-5.55-16.41a11.41,11.41,0,0,0-.57-3.68,8.22,8.22,0,0,0-1.67-2.93,7.62,7.62,0,0,0-2.69-1.94,9.25,9.25,0,0,0-3.65-.68,9,9,0,0,0-6.67,2.44A11.91,11.91,0,0,0,430,47.24Z" fill="#fff" stroke="#fff" stroke-miterlimit="10"/><path d="M467.94,38.49a23.34,23.34,0,0,1,2.37-2.21,15.41,15.41,0,0,1,2.64-1.7,13.93,13.93,0,0,1,3-1.11,14.47,14.47,0,0,1,3.43-.39,12.54,12.54,0,0,1,5.08,1,10.11,10.11,0,0,1,3.68,2.71,11.85,11.85,0,0,1,2.24,4.19,18.38,18.38,0,0,1,.75,5.41v22.3h-6.75V46.35a9,9,0,0,0-1.73-5.85,6.44,6.44,0,0,0-5.27-2.08,10.05,10.05,0,0,0-4.84,1.22A16.26,16.26,0,0,0,468.35,43V68.65h-6.72v-35h4A1.65,1.65,0,0,1,467.42,35Z" fill="#fff" stroke="#fff" stroke-miterlimit="10"/><path d="M524.74,40.18a3.39,3.39,0,0,1-.6.6,1.36,1.36,0,0,1-.84.22,2,2,0,0,1-1.16-.43c-.4-.28-.91-.59-1.52-.93a13.73,13.73,0,0,0-2.2-.93,10.43,10.43,0,0,0-3.19-.43,10.14,10.14,0,0,0-4.38.9,8.51,8.51,0,0,0-3.15,2.55,11.79,11.79,0,0,0-1.92,4,20.45,20.45,0,0,0-.65,5.34,19.8,19.8,0,0,0,.69,5.47,11.75,11.75,0,0,0,2,4,8.3,8.3,0,0,0,3.11,2.48,9.43,9.43,0,0,0,4.06.85,10.17,10.17,0,0,0,3.59-.54,11.59,11.59,0,0,0,2.34-1.15,14.49,14.49,0,0,0,1.55-1.16,2,2,0,0,1,1.28-.53,1.5,1.5,0,0,1,1.28.62l1.93,2.48a13.14,13.14,0,0,1-2.71,2.52A15.47,15.47,0,0,1,521,67.86a18,18,0,0,1-3.53,1,22.21,22.21,0,0,1-3.74.31,15.54,15.54,0,0,1-6.12-1.2,13.9,13.9,0,0,1-4.93-3.52,16.77,16.77,0,0,1-3.29-5.67,22.39,22.39,0,0,1-1.21-7.64,22.83,22.83,0,0,1,1.09-7.2,16,16,0,0,1,3.2-5.71,15,15,0,0,1,5.22-3.75,17.51,17.51,0,0,1,7.11-1.36,17,17,0,0,1,6.61,1.2,16.38,16.38,0,0,1,5.11,3.42Z" fill="#fff" stroke="#fff" stroke-miterlimit="10"/><path d="M561.32,63.65a13.15,13.15,0,0,1-2.86,2.5A16.8,16.8,0,0,1,555,67.86a20.94,20.94,0,0,1-3.78,1,24,24,0,0,1-3.84.31,17.9,17.9,0,0,1-6.7-1.22,14.93,14.93,0,0,1-5.35-3.59,16.33,16.33,0,0,1-3.51-5.86,23.64,23.64,0,0,1-1.26-8,19.87,19.87,0,0,1,1.14-6.81,16.2,16.2,0,0,1,3.25-5.5,15.23,15.23,0,0,1,5.19-3.69,17,17,0,0,1,6.9-1.34A16.25,16.25,0,0,1,553,34.13a13.19,13.19,0,0,1,4.67,3,13.92,13.92,0,0,1,3.08,4.93,18.55,18.55,0,0,1,1.12,6.69,4.27,4.27,0,0,1-.34,2.08,1.39,1.39,0,0,1-1.28.53h-23a18.9,18.9,0,0,0,.89,5.47,11.14,11.14,0,0,0,2.19,3.88,8.78,8.78,0,0,0,3.33,2.31,11.81,11.81,0,0,0,4.31.75,13.06,13.06,0,0,0,3.87-.51,19.18,19.18,0,0,0,2.83-1.12c.79-.4,1.46-.78,2-1.12a2.73,2.73,0,0,1,1.43-.52,1.5,1.5,0,0,1,1.28.62Zm-5.55-16.41a11.41,11.41,0,0,0-.57-3.68,8.37,8.37,0,0,0-1.67-2.93,7.71,7.71,0,0,0-2.69-1.94,9.3,9.3,0,0,0-3.66-.68,9,9,0,0,0-6.67,2.44,11.9,11.9,0,0,0-3.08,6.79Z" fill="#fff" stroke="#fff" stroke-miterlimit="10"/></svg>