<?xml version="1.0" standalone="no"?>
<!DOCTYPE svg PUBLIC "-//W3C//DTD SVG 20010904//EN"
 "http://www.w3.org/TR/2001/REC-SVG-20010904/DTD/svg10.dtd">
<svg version="1.0" xmlns="http://www.w3.org/2000/svg"
 width="898.000000pt" height="898.000000pt" viewBox="0 0 898.000000 898.000000"
 preserveAspectRatio="xMidYMid meet">
<metadata>
Created by potrace 1.11, written by Peter Selinger 2001-2013
</metadata>
<g transform="translate(0.000000,898.000000) scale(0.100000,-0.100000)"
fill="#000000" stroke="none">
<path d="M1280 4460 l0 -3420 465 0 465 0 2 2957 3 2958 1560 0 c1554 0 1580
-1 1737 -30 208 -40 475 -171 654 -320 119 -100 274 -273 325 -365 8 -14 19
-32 26 -40 22 -28 101 -195 127 -268 63 -175 80 -282 81 -482 0 -187 -12 -299
-46 -424 -6 -23 -13 -48 -14 -58 -10 -51 -74 -215 -115 -295 -179 -347 -452
-583 -825 -711 -33 -12 -116 -33 -185 -48 l-125 -27 -815 -4 c-448 -2 -863 -3
-923 -3 l-107 0 2 -461 3 -461 462 1 461 0 78 -197 c42 -108 115 -294 161
-412 47 -118 107 -273 135 -345 28 -71 55 -141 61 -155 5 -14 11 -29 13 -35 2
-5 70 -181 152 -390 l150 -380 472 -3 c377 -2 471 0 467 10 -3 7 -24 60 -47
118 -23 58 -48 119 -55 135 -8 17 -28 66 -45 110 -38 95 -43 109 -63 155 -8
19 -38 94 -67 165 -28 72 -58 144 -65 160 -8 17 -43 102 -78 190 -36 88 -100
246 -142 350 -190 468 -215 529 -212 531 1 1 25 4 52 7 28 3 75 9 106 13 l56
6 26 -63 c14 -35 54 -134 90 -219 136 -327 349 -836 362 -865 7 -16 34 -82 60
-145 26 -63 58 -139 71 -168 13 -29 24 -55 24 -58 0 -3 6 -20 14 -37 8 -18 48
-113 90 -212 l75 -180 480 -3 480 -2 -110 272 c-61 150 -156 386 -211 523 -55
138 -109 269 -119 292 -10 23 -19 45 -19 48 0 4 -6 21 -14 38 -8 18 -62 149
-119 292 -58 143 -144 357 -192 475 -76 187 -125 311 -125 316 0 1 37 26 83
54 515 328 897 881 1023 1485 17 83 34 179 39 230 4 33 9 71 12 85 2 14 6 129
8 255 3 235 -7 362 -41 510 -9 39 -18 81 -20 95 -20 111 -116 359 -201 520
-356 676 -1022 1174 -1753 1309 -57 11 -103 18 -205 31 -33 5 -981 9 -2107 9
l-2048 1 0 -3420z"/>
<path d="M2430 3885 l0 -2845 465 0 c436 0 465 1 466 18 0 9 1 1080 1 2380 l1
2363 966 -3 966 -3 56 -23 c127 -53 218 -176 223 -303 6 -125 -39 -244 -119
-318 -48 -44 -127 -85 -186 -96 -19 -3 -43 -8 -54 -10 -11 -2 -386 -4 -832 -4
l-813 -1 0 -467 0 -468 837 1 c461 0 881 4 934 8 690 50 1150 581 1153 1331 1
214 -39 382 -137 570 -157 301 -468 559 -797 659 -186 57 -116 55 -1682 55
l-1448 1 0 -2845z"/>
</g>
</svg>
