<svg xmlns="http://www.w3.org/2000/svg" width="512" height="512" viewBox="0 0 512 512"><path d="M349,339V237.5H327.9A67.4,67.4,0,0,1,331,258a69.4,69.4,0,0,1-10,36.4,73.1,73.1,0,0,1-27.3,26.4,75.3,75.3,0,0,1-37.6,9.7q-30.9,0-52.8-21.2T181.5,258a67.4,67.4,0,0,1,3.1-20.5H162.5V339a9.4,9.4,0,0,0,9.6,9.6H339.5a9.3,9.3,0,0,0,6.7-2.7A9.1,9.1,0,0,0,349,339Zm-44.5-83.5q0-19.4-14.2-33.1a49.4,49.4,0,0,0-68.3,0q-14.2,13.7-14.2,33.1t14.2,33.1a49.4,49.4,0,0,0,68.3,0Q304.5,274.9,304.5,255.5ZM349,199.2V173.3a10.5,10.5,0,0,0-3.1-7.6,10.3,10.3,0,0,0-7.7-3.2H311a10.3,10.3,0,0,0-7.7,3.2,10.5,10.5,0,0,0-3.1,7.6v25.8A10.7,10.7,0,0,0,311,210h27.3A10.7,10.7,0,0,0,349,199.2Zm27.3-32.6V345.4a31,31,0,0,1-30.9,30.9H166.6a31,31,0,0,1-30.9-30.9V166.6a31,31,0,0,1,30.9-30.9H345.4a31,31,0,0,1,30.9,30.9Z" style="fill:#fff"/></svg>