<svg xmlns="http://www.w3.org/2000/svg" width="512" height="512" viewBox="0 0 512 512"><title>Artboard 1</title><path d="M386.2,202.3V176.2H309.5V149A33.6,33.6,0,0,0,276,115.5h-6.2A33.6,33.6,0,0,0,236.3,149v43.6l-61,27.1v24.2H134.6v26h40.8V294l61,27.1v43.6a33.6,33.6,0,0,0,33.5,33.5H276a33.6,33.6,0,0,0,33.5-33.5V337.5h76.7V311.4H309.5V281.6h20V269.9h36.6v-26H329.5V228.3h-20v-26Zm-113.3-67a16.4,16.4,0,1,1-16.4,16.5A16.5,16.5,0,0,1,272.9,135.3Zm0,245a16.4,16.4,0,1,1,16.5-16.4A16.4,16.4,0,0,1,272.9,380.2Z" style="fill:#fff"/></svg>