<svg xmlns="http://www.w3.org/2000/svg" viewBox="0 0 36 36">
  <path fill="#fff" d="M18 0C8.1 0 0 8.1 0 18s8.1 18 18 18 18-8.1 18-18S27.9 0 18 0zm-5 26.8H9.2c-.1 0-.2 0-.2-.2V15.1c0-.1 0-.2.2-.2H13v11.9zm.2-15.3c-.1.8-.5 1.3-1.3 1.6-.3.1-.6.1-.9.2-.8 0-1.4-.3-1.9-.9-.7-1.1-.2-2.7 1.1-3 .8-.2 1.5-.2 2.2.3.7.4.9 1.1.8 1.8zm14 15.3h-3.9v-.2-6c0-.5 0-1-.2-1.5-.3-.9-1-1.3-1.9-1.2-.9.1-1.7.7-1.9 1.6-.1.3-.1.6-.1 1V27h-3.9V15.1H19.1c.1 0 .2 0 .2.2v1.5c.2-.3.4-.5.7-.8.6-.6 1.3-1 2.2-1.1.8-.1 1.6 0 2.4.2.9.3 1.6 1 2.1 1.8.5 1 .7 2.1.7 3.2v6.7c-.2-.1-.2-.1-.2 0z"/>
</svg>
