<svg xmlns="http://www.w3.org/2000/svg" width="512" height="512" viewBox="0 0 512 512"><path d="M286.5,308.4v31.8q0,10.1-5.9,10.1-3.5,0-6.8-3.3V301.7q3.3-3.3,6.8-3.3Q286.5,298.3,286.5,308.4Zm50.9.2v6.9H323.9v-6.9q0-10.2,6.8-10.2T337.4,308.6ZM192,275.7h16.1V261.6H161.2v14.2H177v85.7h15Zm43.3,85.7h13.4V287H235.4v57q-4.5,6.3-8.6,6.3t-3.2-3.2a42,42,0,0,1-.2-5.3V287H210.1v58.9q0,7.4,1.2,11,1.8,5.6,8.7,5.6t15.3-9.2Zm64.6-22.3V309.5q0-11-1.4-14.9-2.6-8.4-10.7-8.4t-14,8.1V261.6H260.5v99.9h13.4v-7.2q6.8,8.3,14,8.3t10.7-8.3Q299.9,350.2,299.9,339.2Zm50.9-1.5v-2H337.1a74.7,74.7,0,0,1-.3,9.2q-1.1,5.4-6,5.4-6.9,0-6.9-10.4V326.8h26.9V311.3q0-11.9-4.1-17.5a19,19,0,0,0-16-7.7q-10.2,0-16.1,7.7-4.2,5.6-4.2,17.5v26.1q0,11.9,4.4,17.5,5.9,7.7,16.3,7.7t16.3-8a18.3,18.3,0,0,0,3.2-8.1A66.4,66.4,0,0,0,350.8,337.7ZM259.3,200.1V168.5q0-10.4-6.5-10.4t-6.5,10.4v31.6q0,10.5,6.5,10.5T259.3,200.1ZM367.5,313.3q0,35.3-3.9,52.7a28.6,28.6,0,0,1-8.7,14.9,26.3,26.3,0,0,1-15.3,6.9Q311.8,391,256,391t-83.5-3.2a26.7,26.7,0,0,1-15.4-6.9,27.5,27.5,0,0,1-8.7-14.9q-3.9-16.9-3.9-52.7t3.9-52.7a28.6,28.6,0,0,1,8.7-14.9,27.3,27.3,0,0,1,15.5-7.1q27.5-3,83.4-3t83.5,3a28.3,28.3,0,0,1,24.1,22Q367.5,277.4,367.5,313.3ZM217.3,121h15.3l-18.2,60.1v40.8h-15V181.1q-2.1-11.1-9.2-31.9-5.6-15.5-9.8-28.2h16l10.7,39.6ZM273,171.2v26.4q0,12.2-4.2,17.8-5.6,7.7-16,7.7T237,215.3q-4.2-5.7-4.2-17.8V171.2q0-12.1,4.2-17.6,5.7-7.7,15.8-7.7t16,7.7Q273,159.1,273,171.2Zm50.4-24.4v75.2H309.7v-8.3q-8,9.3-15.5,9.3t-8.9-5.6q-1.2-3.6-1.2-11.3V146.8h13.7v55.3a39.5,39.5,0,0,0,.2,5.3q.5,3.3,3.2,3.3t8.6-6.5V146.8Z" style="fill:#fff"/></svg>