<svg xmlns="http://www.w3.org/2000/svg" width="512" height="512" viewBox="0 0 512 512"><title>Artboard 1</title><path d="M291.4,302.3a202.4,202.4,0,0,1-2.7,30.9c-2.3,16.3-4.7,33.1-8.6,49-2.8,11.4-13.5,14.1-23.8,14.1s-21-2.7-23.8-14.1c-3.9-16-6.3-32.7-8.6-49a203.8,203.8,0,0,1-2.7-30.9c0-21.1,17.1-26.3,35.1-26.3S291.4,281.2,291.4,302.3Zm84.9-66.4a120.3,120.3,0,0,1-75.8,111.8,2.5,2.5,0,0,1-3.3-2.8c.5-3.3.9-6.7,1.6-10.3l.9-7.4a2.3,2.3,0,0,1,1.4-1.9,100.2,100.2,0,0,0-50.6-189.5c-52.9,2.8-95.1,47.9-94.8,100.9a100.3,100.3,0,0,0,55.8,89,2.5,2.5,0,0,1,1.4,1.9c.3,2.2.6,4.5.9,7s1.1,7.2,1.7,10.6a2.5,2.5,0,0,1-3.4,2.7,120.1,120.1,0,0,1-76.3-118c3-60.6,51.8-110.3,112.5-114a120.3,120.3,0,0,1,128,120Zm-84.9-5a35.1,35.1,0,1,1-35.1-35.1A35,35,0,0,1,291.4,230.9Zm45.1,5a80.3,80.3,0,0,1-31.3,63.6,2.6,2.6,0,0,1-4.1-1.9,36.5,36.5,0,0,0-4.5-14.4,2.4,2.4,0,0,1,.5-3.1,59.8,59.8,0,0,0,19.4-44.2,60.4,60.4,0,0,0-67-59.8c-27.7,3.1-50.3,26-52.9,53.9a59.5,59.5,0,0,0,19.1,50.1,2.5,2.5,0,0,1,.5,3.1,36.5,36.5,0,0,0-4.5,14.6,2.6,2.6,0,0,1-4.1,1.7,80.5,80.5,0,0,1-31.3-65.3c.9-41.7,34.8-76.4,76.3-78.3a80.2,80.2,0,0,1,84.1,80Z" style="fill:#fff"/></svg>