<svg xmlns="http://www.w3.org/2000/svg" viewBox="0 0 36 36">
  <path fill="#fff" d="M18 0C8.1 0 0 8.1 0 18s8.1 18 18 18 18-8.1 18-18S27.9 0 18 0zm9 13.3c-.1.1-.2.2-.2.4.1 1.7-.2 3.4-.9 5-.5 1.3-1.2 2.5-2.1 3.6-1.1 1.3-2.3 2.4-3.9 3.2-1.3.7-2.6 1.1-4.1 1.3-1.3.2-2.6.2-3.8 0-.8-.1-1.6-.3-2.3-.6l-2.1-.9c-.2 0-.4-.2-.6-.3 2.4.2 4.6-.4 6.6-1.9-2.1-.2-3.5-1.2-4.2-3.2.7.1 1.3.1 2-.1-1-.3-1.9-.8-2.6-1.6-.7-.8-1-1.8-1-2.8.3.1.6.3 1 .4.3.1.7.1 1 .2-2-1.7-2.4-3.7-1.3-6.1 2.5 2.9 5.6 4.5 9.4 4.8 0-.1 0-.3-.1-.4-.2-1.6.2-2.9 1.4-4 1.1-1.1 2.5-1.4 4-1.1.9.2 1.6.6 2.3 1.2.1.1.2.1.3.1.9-.2 1.7-.5 2.6-1 0 0 .1 0 .1-.1-.2.5-.4 1-.7 1.4-.3.4-.7.8-1.1 1.1.8-.1 1.6-.3 2.4-.6-.6.7-1.3 1.4-2.1 2z"/>
</svg>
