<svg xmlns="http://www.w3.org/2000/svg" viewBox="0 0 67.72 20.59"><title>Artboard 1</title><path d="M22.87,13a6.1,6.1,0,1,1-.07-5.62l2.85-2.79a10.3,10.3,0,1,0,.07,11.22Z" fill="#fff"/><rect x="15.46" y="8.21" width="4.17" height="4.17" fill="#fff"/><rect y="0.74" width="4.46" height="19.48" fill="#fff"/><polygon points="27.51 0.74 33.56 0.74 37.73 13.45 37.78 13.45 41.98 0.74 48.01 0.74 48.01 20.22 44.01 20.22 44.01 5.87 43.96 5.87 39.19 20.22 36.14 20.22 31.56 5.87 31.51 5.87 31.51 20.22 27.51 20.22 27.51 0.74" fill="#fff"/><polygon points="67.72 20.22 59.83 0.74 56.52 0.74 48.68 20.22 53.09 20.22 58.06 6.41 61.88 16.67 56.97 16.67 55.72 20.22 67.72 20.22" fill="#fff"/></svg>